<svg width="42" height="42" viewBox="0 0 42 42" fill="none" xmlns="http://www.w3.org/2000/svg">
<rect x="0.525" y="0.525" width="40.95" height="40.95" rx="20.475" fill="#ECECEC" stroke="#EFEFEF" stroke-width="1.05"/>
<path d="M14.2356 16.832C13.9276 17.1301 13.9207 17.6202 14.2201 17.9268C14.5195 18.2333 15.012 18.2402 15.32 17.9422L14.2356 16.832ZM18.5111 13.7742H19.2889C19.2889 13.4631 19.1017 13.1822 18.8138 13.0611C18.5259 12.94 18.1931 13.0022 17.9689 13.2191L18.5111 13.7742ZM17.7333 28.2258C17.7333 28.6533 18.0816 29 18.5111 29C18.9407 29 19.2889 28.6533 19.2889 28.2258H17.7333ZM27.7644 25.1679C28.0724 24.8699 28.0793 24.3798 27.7798 24.0732C27.4804 23.7666 26.9881 23.7597 26.6801 24.0578L27.7644 25.1679ZM23.4889 28.2258H22.7111C22.7111 28.5369 22.8983 28.8179 23.1862 28.9389C23.4742 29.06 23.8069 28.9978 24.0311 28.7808L23.4889 28.2258ZM24.2667 13.7742C24.2667 13.3466 23.9184 13 23.4889 13C23.0593 13 22.7111 13.3466 22.7111 13.7742H24.2667ZM15.32 17.9422L19.0533 14.3293L17.9689 13.2191L14.2356 16.832L15.32 17.9422ZM17.7333 13.7742V28.2258H19.2889V13.7742H17.7333ZM26.6801 24.0578L22.9467 27.6707L24.0311 28.7808L27.7644 25.1679L26.6801 24.0578ZM24.2667 28.2258V13.7742H22.7111V28.2258H24.2667Z" fill="#5A5A5A"/>
</svg>
