<svg width="16" height="16" viewBox="0 0 16 16" fill="none" xmlns="http://www.w3.org/2000/svg">
<path d="M5.8202 14.9964L6.06029 13.1273C6.16383 12.3285 6.52976 11.5866 7.10065 11.0182L11.233 6.88C11.7453 6.38166 12.3931 6.04523 13.0955 5.91273V3.63637C13.0955 3.15883 13.0014 2.68597 12.8186 2.24479C12.6358 1.8036 12.3678 1.40273 12.03 1.06507C11.6922 0.727399 11.2912 0.459546 10.8499 0.276802C10.4086 0.0940574 9.93553 0 9.45783 0H3.63763C3.15993 0 2.6869 0.0940574 2.24557 0.276802C1.80423 0.459546 1.40322 0.727399 1.06544 1.06507C0.383249 1.74702 0 2.67194 0 3.63637V12.3636C0 12.8412 0.09409 13.314 0.276898 13.7552C0.459706 14.1964 0.727651 14.5973 1.06544 14.9349C1.74762 15.6169 2.67287 16 3.63763 16H5.95116C5.82779 15.6808 5.78288 15.3366 5.8202 14.9964ZM2.9101 4.36364H8.7303C8.92326 4.36364 9.1083 4.44026 9.24474 4.57665C9.38118 4.71304 9.45783 4.89803 9.45783 5.09091C9.45783 5.2838 9.38118 5.46878 9.24474 5.60517C9.1083 5.74156 8.92326 5.81818 8.7303 5.81818H2.9101C2.71715 5.81818 2.5321 5.74156 2.39566 5.60517C2.25923 5.46878 2.18258 5.2838 2.18258 5.09091C2.18258 4.89803 2.25923 4.71304 2.39566 4.57665C2.5321 4.44026 2.71715 4.36364 2.9101 4.36364ZM2.9101 7.27273H7.27525C7.46821 7.27273 7.65325 7.34935 7.78969 7.48574C7.92613 7.62213 8.00278 7.80712 8.00278 8C8.00278 8.19289 7.92613 8.37787 7.78969 8.51426C7.65325 8.65065 7.46821 8.72728 7.27525 8.72728H2.9101C2.71715 8.72728 2.5321 8.65065 2.39566 8.51426C2.25923 8.37787 2.18258 8.19289 2.18258 8C2.18258 7.80712 2.25923 7.62213 2.39566 7.48574C2.5321 7.34935 2.71715 7.27273 2.9101 7.27273ZM4.36515 11.6364H2.9101C2.71715 11.6364 2.5321 11.5597 2.39566 11.4234C2.25923 11.287 2.18258 11.102 2.18258 10.9091C2.18258 10.7162 2.25923 10.5312 2.39566 10.3948C2.5321 10.2584 2.71715 10.1818 2.9101 10.1818H4.36515C4.5581 10.1818 4.74315 10.2584 4.87959 10.3948C5.01603 10.5312 5.09268 10.7162 5.09268 10.9091C5.09268 11.102 5.01603 11.287 4.87959 11.4234C4.74315 11.5597 4.5581 11.6364 4.36515 11.6364ZM15.3653 10.9964L11.2257 15.1346C10.886 15.4781 10.4397 15.6961 9.95982 15.7527L8.09736 16H8.00278C7.89873 16.0009 7.79571 15.9795 7.70066 15.9371C7.6056 15.8948 7.52074 15.8326 7.45178 15.7547C7.38282 15.6768 7.33138 15.5851 7.30093 15.4856C7.27048 15.3862 7.26172 15.2813 7.27525 15.1782L7.51534 13.3164C7.57204 12.8367 7.79008 12.3905 8.13373 12.0509L12.2734 7.91273C12.6897 7.51782 13.2418 7.29766 13.8157 7.29766C14.3896 7.29766 14.9417 7.51782 15.3581 7.91273C15.7678 8.32086 15.9986 8.87486 16 9.45305C16.0014 10.0312 15.7731 10.5863 15.3653 10.9964Z" fill="#2DA060"/>
</svg>
