<svg width="42" height="42" viewBox="0 0 42 42" fill="none" xmlns="http://www.w3.org/2000/svg">
<rect x="0.5" y="0.5" width="41" height="41" rx="20.5" fill="#ECECEC"/>
<rect x="0.5" y="0.5" width="41" height="41" rx="20.5" stroke="#EFEFEF"/>
<path d="M23.7083 24.1247C23.3667 24.1247 23.0833 24.408 23.0833 24.7497V25.9997C23.0833 26.5747 22.6167 27.0413 22.0417 27.0413H15.7917C15.2167 27.0413 14.75 26.5747 14.75 25.9997V15.9997C14.75 15.4247 15.2167 14.958 15.7917 14.958H18.5V18.9163C18.5 19.258 18.7833 19.5413 19.125 19.5413H23.0833V20.583C23.0833 20.9247 23.3667 21.208 23.7083 21.208C24.05 21.208 24.3333 20.9247 24.3333 20.583V18.9163C24.3333 18.7497 24.2667 18.5913 24.15 18.4747L19.5667 13.8913C19.4496 13.7741 19.2907 13.7082 19.125 13.708H15.7917C14.525 13.708 13.5 14.733 13.5 15.9997V25.9997C13.5 27.2663 14.525 28.2913 15.7917 28.2913H22.0417C23.3083 28.2913 24.3333 27.2663 24.3333 25.9997V24.7497C24.3333 24.408 24.05 24.1247 23.7083 24.1247ZM19.75 15.8413L22.2 18.2913H19.75V15.8413ZM28.45 22.908C28.4167 22.983 28.375 23.0497 28.3167 23.108L25.8167 25.608C25.6917 25.733 25.5333 25.7913 25.375 25.7913C25.2167 25.7913 25.0583 25.733 24.9333 25.608C24.8171 25.4904 24.7519 25.3317 24.7519 25.1663C24.7519 25.001 24.8171 24.8423 24.9333 24.7247L26.3667 23.2913H19.125C18.7833 23.2913 18.5 23.008 18.5 22.6663C18.5 22.3247 18.7833 22.0413 19.125 22.0413H26.3667L24.9333 20.608C24.6917 20.3663 24.6917 19.9663 24.9333 19.7247C25.175 19.483 25.575 19.483 25.8167 19.7247L28.3167 22.2247C28.375 22.283 28.4167 22.3497 28.45 22.4247C28.5167 22.5747 28.5167 22.7497 28.45 22.8997V22.908Z" fill="#343434"/>
</svg>
