<svg width="42" height="42" viewBox="0 0 42 42" fill="none" xmlns="http://www.w3.org/2000/svg">
<rect x="0.525" y="0.525" width="40.95" height="40.95" rx="20.475" fill="#ECECEC" stroke="#EFEFEF" stroke-width="1.05"/>
<path fill-rule="evenodd" clip-rule="evenodd" d="M20.9961 12.25C17.5467 12.25 14.7461 15.0506 14.7461 18.5C14.7461 19.5669 15.2248 21.0263 15.9336 22.5725C16.9373 24.765 18.3892 27.155 19.3786 28.8056C19.7098 29.3888 20.3292 29.75 21.0005 29.75C21.3305 29.75 21.6547 29.6624 21.9398 29.496C22.2249 29.3296 22.4606 29.0905 22.623 28.8031C23.6123 27.155 25.0605 24.765 26.0623 22.5719C26.7692 21.0256 27.2461 19.5669 27.2461 18.5C27.2461 15.0506 24.4461 12.25 20.9961 12.25ZM20.9961 13.5C23.7561 13.5 25.9961 15.7406 25.9961 18.5C25.9961 19.4331 25.5442 20.6994 24.9255 22.0525C23.9417 24.205 22.5167 26.5506 21.5461 28.1687L21.5367 28.1856C21.4833 28.2809 21.4054 28.3602 21.3112 28.4155C21.217 28.4707 21.1097 28.4999 21.0005 28.5C20.8912 28.5 20.7839 28.4709 20.6896 28.4157C20.5954 28.3604 20.5176 28.281 20.4642 28.1856C20.4611 28.18 20.458 28.1744 20.4548 28.1694C19.4842 26.5506 18.0561 24.205 17.0698 22.0519C16.4498 20.6994 15.9961 19.4331 15.9961 18.5C15.9961 15.7406 18.2367 13.5 20.9961 13.5ZM21.0005 16C19.6205 16 18.5005 17.12 18.5005 18.5C18.5005 19.88 19.6205 21 21.0005 21C22.3805 21 23.5005 19.88 23.5005 18.5C23.5005 17.12 22.3805 16 21.0005 16ZM21.0005 17.25C21.6905 17.25 22.2505 17.81 22.2505 18.5C22.2505 19.19 21.6905 19.75 21.0005 19.75C20.3105 19.75 19.7505 19.19 19.7505 18.5C19.7505 17.81 20.3105 17.25 21.0005 17.25Z" fill="#5A5A5A"/>
</svg>
