<svg width="148" height="44" viewBox="0 0 148 44" fill="none" xmlns="http://www.w3.org/2000/svg">
<path d="M21.52 0.64L13.72 11.04C13.4233 11.4355 13.7056 12 14.2 12H29.8C30.2944 12 30.5767 11.4355 30.28 11.04L22.48 0.64C22.24 0.32 21.76 0.32 21.52 0.64Z" fill="#434343"/>
<rect y="8" width="148" height="36" rx="6" fill="#434343"/>
<path d="M16.4062 27.2227H17.8711C17.8242 27.7812 17.668 28.2793 17.4023 28.7168C17.1367 29.1504 16.7637 29.4922 16.2832 29.7422C15.8027 29.9922 15.2188 30.1172 14.5312 30.1172C14.0039 30.1172 13.5293 30.0234 13.1074 29.8359C12.6855 29.6445 12.3242 29.375 12.0234 29.0273C11.7227 28.6758 11.4922 28.252 11.332 27.7559C11.1758 27.2598 11.0977 26.7051 11.0977 26.0918V25.3828C11.0977 24.7695 11.1777 24.2148 11.3379 23.7188C11.502 23.2227 11.7363 22.7988 12.041 22.4473C12.3457 22.0918 12.7109 21.8203 13.1367 21.6328C13.5664 21.4453 14.0488 21.3516 14.584 21.3516C15.2637 21.3516 15.8379 21.4766 16.3066 21.7266C16.7754 21.9766 17.1387 22.3223 17.3965 22.7637C17.6582 23.2051 17.8184 23.7109 17.877 24.2812H16.4121C16.373 23.9141 16.2871 23.5996 16.1543 23.3379C16.0254 23.0762 15.834 22.877 15.5801 22.7402C15.3262 22.5996 14.9941 22.5293 14.584 22.5293C14.248 22.5293 13.9551 22.5918 13.7051 22.7168C13.4551 22.8418 13.2461 23.0254 13.0781 23.2676C12.9102 23.5098 12.7832 23.8086 12.6973 24.1641C12.6152 24.5156 12.5742 24.918 12.5742 25.3711V26.0918C12.5742 26.5215 12.6113 26.9121 12.6855 27.2637C12.7637 27.6113 12.8809 27.9102 13.0371 28.1602C13.1973 28.4102 13.4004 28.6035 13.6465 28.7402C13.8926 28.877 14.1875 28.9453 14.5312 28.9453C14.9492 28.9453 15.2871 28.8789 15.5449 28.7461C15.8066 28.6133 16.0039 28.4199 16.1367 28.166C16.2734 27.9082 16.3633 27.5938 16.4062 27.2227ZM20.5781 21V30H19.1602V21H20.5781ZM23.6367 23.6602V30H22.2188V23.6602H23.6367ZM22.125 21.9961C22.125 21.7812 22.1953 21.6035 22.3359 21.4629C22.4805 21.3184 22.6797 21.2461 22.9336 21.2461C23.1836 21.2461 23.3809 21.3184 23.5254 21.4629C23.6699 21.6035 23.7422 21.7812 23.7422 21.9961C23.7422 22.207 23.6699 22.3828 23.5254 22.5234C23.3809 22.6641 23.1836 22.7344 22.9336 22.7344C22.6797 22.7344 22.4805 22.6641 22.3359 22.5234C22.1953 22.3828 22.125 22.207 22.125 21.9961ZM27.7734 28.9922C28.0039 28.9922 28.2109 28.9473 28.3945 28.8574C28.582 28.7637 28.7324 28.6348 28.8457 28.4707C28.9629 28.3066 29.0273 28.1172 29.0391 27.9023H30.3691C30.3613 28.3125 30.2402 28.6855 30.0059 29.0215C29.7715 29.3574 29.4609 29.625 29.0742 29.8242C28.6875 30.0195 28.2598 30.1172 27.791 30.1172C27.3066 30.1172 26.8848 30.0352 26.5254 29.8711C26.166 29.7031 25.8672 29.4727 25.6289 29.1797C25.3906 28.8867 25.2109 28.5488 25.0898 28.166C24.9727 27.7832 24.9141 27.373 24.9141 26.9355V26.7305C24.9141 26.293 24.9727 25.8828 25.0898 25.5C25.2109 25.1133 25.3906 24.7734 25.6289 24.4805C25.8672 24.1875 26.166 23.959 26.5254 23.7949C26.8848 23.627 27.3047 23.543 27.7852 23.543C28.293 23.543 28.7383 23.6445 29.1211 23.8477C29.5039 24.0469 29.8047 24.3262 30.0234 24.6855C30.2461 25.041 30.3613 25.4551 30.3691 25.9277H29.0391C29.0273 25.6934 28.9688 25.4824 28.8633 25.2949C28.7617 25.1035 28.6172 24.9512 28.4297 24.8379C28.2461 24.7246 28.0254 24.668 27.7676 24.668C27.4824 24.668 27.2461 24.7266 27.0586 24.8438C26.8711 24.957 26.7246 25.1133 26.6191 25.3125C26.5137 25.5078 26.4375 25.7285 26.3906 25.9746C26.3477 26.2168 26.3262 26.4688 26.3262 26.7305V26.9355C26.3262 27.1973 26.3477 27.4512 26.3906 27.6973C26.4336 27.9434 26.5078 28.1641 26.6133 28.3594C26.7227 28.5508 26.8711 28.7051 27.0586 28.8223C27.2461 28.9355 27.4844 28.9922 27.7734 28.9922ZM32.877 21V30H31.459V21H32.877ZM36.8145 23.6602L34.0547 26.7188L32.543 28.2656L32.1738 27.0703L33.3164 25.6582L35.1094 23.6602H36.8145ZM35.4141 30L33.3574 27.0234L34.248 26.0332L37.0488 30H35.4141ZM43.6055 23.6602V24.6914H40.0312V23.6602H43.6055ZM41.0625 22.1074H42.4746V28.248C42.4746 28.4434 42.502 28.5938 42.5566 28.6992C42.6152 28.8008 42.6953 28.8691 42.7969 28.9043C42.8984 28.9395 43.0176 28.957 43.1543 28.957C43.252 28.957 43.3457 28.9512 43.4355 28.9395C43.5254 28.9277 43.5977 28.916 43.6523 28.9043L43.6582 29.9824C43.541 30.0176 43.4043 30.0488 43.248 30.0762C43.0957 30.1035 42.9199 30.1172 42.7207 30.1172C42.3965 30.1172 42.1094 30.0605 41.8594 29.9473C41.6094 29.8301 41.4141 29.6406 41.2734 29.3789C41.1328 29.1172 41.0625 28.7695 41.0625 28.3359V22.1074ZM44.2852 26.9004V26.7656C44.2852 26.3086 44.3516 25.8848 44.4844 25.4941C44.6172 25.0996 44.8086 24.7578 45.0586 24.4688C45.3125 24.1758 45.6211 23.9492 45.9844 23.7891C46.3516 23.625 46.7656 23.543 47.2266 23.543C47.6914 23.543 48.1055 23.625 48.4688 23.7891C48.8359 23.9492 49.1465 24.1758 49.4004 24.4688C49.6543 24.7578 49.8477 25.0996 49.9805 25.4941C50.1133 25.8848 50.1797 26.3086 50.1797 26.7656V26.9004C50.1797 27.3574 50.1133 27.7812 49.9805 28.1719C49.8477 28.5625 49.6543 28.9043 49.4004 29.1973C49.1465 29.4863 48.8379 29.7129 48.4746 29.877C48.1113 30.0371 47.6992 30.1172 47.2383 30.1172C46.7734 30.1172 46.3574 30.0371 45.9902 29.877C45.627 29.7129 45.3184 29.4863 45.0645 29.1973C44.8105 28.9043 44.6172 28.5625 44.4844 28.1719C44.3516 27.7812 44.2852 27.3574 44.2852 26.9004ZM45.6973 26.7656V26.9004C45.6973 27.1855 45.7266 27.4551 45.7852 27.709C45.8438 27.9629 45.9355 28.1855 46.0605 28.377C46.1855 28.5684 46.3457 28.7188 46.541 28.8281C46.7363 28.9375 46.9688 28.9922 47.2383 28.9922C47.5 28.9922 47.7266 28.9375 47.918 28.8281C48.1133 28.7188 48.2734 28.5684 48.3984 28.377C48.5234 28.1855 48.6152 27.9629 48.6738 27.709C48.7363 27.4551 48.7676 27.1855 48.7676 26.9004V26.7656C48.7676 26.4844 48.7363 26.2188 48.6738 25.9688C48.6152 25.7148 48.5215 25.4902 48.3926 25.2949C48.2676 25.0996 48.1074 24.9473 47.9121 24.8379C47.7207 24.7246 47.4922 24.668 47.2266 24.668C46.9609 24.668 46.7305 24.7246 46.5352 24.8379C46.3438 24.9473 46.1855 25.0996 46.0605 25.2949C45.9355 25.4902 45.8438 25.7148 45.7852 25.9688C45.7266 26.2188 45.6973 26.4844 45.6973 26.7656ZM57.416 28.4414L59.6602 21.4688H61.2832L58.2246 30H57.1289L57.416 28.4414ZM55.3418 21.4688L57.5684 28.4414L57.873 30H56.7715L53.7246 21.4688H55.3418ZM63.6094 23.6602V30H62.1914V23.6602H63.6094ZM62.0977 21.9961C62.0977 21.7812 62.168 21.6035 62.3086 21.4629C62.4531 21.3184 62.6523 21.2461 62.9062 21.2461C63.1562 21.2461 63.3535 21.3184 63.498 21.4629C63.6426 21.6035 63.7148 21.7812 63.7148 21.9961C63.7148 22.207 63.6426 22.3828 63.498 22.5234C63.3535 22.6641 63.1562 22.7344 62.9062 22.7344C62.6523 22.7344 62.4531 22.6641 62.3086 22.5234C62.168 22.3828 62.0977 22.207 62.0977 21.9961ZM67.9512 30.1172C67.4824 30.1172 67.0586 30.041 66.6797 29.8887C66.3047 29.7324 65.9844 29.5156 65.7188 29.2383C65.457 28.9609 65.2559 28.6348 65.1152 28.2598C64.9746 27.8848 64.9043 27.4805 64.9043 27.0469V26.8125C64.9043 26.3164 64.9766 25.8672 65.1211 25.4648C65.2656 25.0625 65.4668 24.7188 65.7246 24.4336C65.9824 24.1445 66.2871 23.9238 66.6387 23.7715C66.9902 23.6191 67.3711 23.543 67.7812 23.543C68.2344 23.543 68.6309 23.6191 68.9707 23.7715C69.3105 23.9238 69.5918 24.1387 69.8145 24.416C70.041 24.6895 70.209 25.0156 70.3184 25.3945C70.4316 25.7734 70.4883 26.1914 70.4883 26.6484V27.252H65.5898V26.2383H69.0938V26.127C69.0859 25.873 69.0352 25.6348 68.9414 25.4121C68.8516 25.1895 68.7129 25.0098 68.5254 24.873C68.3379 24.7363 68.0879 24.668 67.7754 24.668C67.541 24.668 67.332 24.7188 67.1484 24.8203C66.9688 24.918 66.8184 25.0605 66.6973 25.248C66.5762 25.4355 66.4824 25.6621 66.416 25.9277C66.3535 26.1895 66.3223 26.4844 66.3223 26.8125V27.0469C66.3223 27.3242 66.3594 27.582 66.4336 27.8203C66.5117 28.0547 66.625 28.2598 66.7734 28.4355C66.9219 28.6113 67.1016 28.75 67.3125 28.8516C67.5234 28.9492 67.7637 28.998 68.0332 28.998C68.373 28.998 68.6758 28.9297 68.9414 28.793C69.207 28.6562 69.4375 28.4629 69.6328 28.2129L70.377 28.9336C70.2402 29.1328 70.0625 29.3242 69.8438 29.5078C69.625 29.6875 69.3574 29.834 69.041 29.9473C68.7285 30.0605 68.3652 30.1172 67.9512 30.1172ZM73.3125 28.5938L74.7773 23.6602H75.6797L75.4336 25.1367L73.957 30H73.1484L73.3125 28.5938ZM72.4512 23.6602L73.5938 28.6172L73.6875 30H72.7852L71.0684 23.6602H72.4512ZM77.0508 28.5586L78.1582 23.6602H79.5352L77.8242 30H76.9219L77.0508 28.5586ZM75.832 23.6602L77.2793 28.5352L77.4609 30H76.6523L75.1582 25.1309L74.9121 23.6602H75.832ZM84.2227 21.4688H85.5352L88.002 28.0488L90.4629 21.4688H91.7754L88.5176 30H87.4746L84.2227 21.4688ZM83.625 21.4688H84.873L85.0898 27.1641V30H83.625V21.4688ZM91.125 21.4688H92.3789V30H90.9082V27.1641L91.125 21.4688ZM97.5586 28.7285V25.7051C97.5586 25.4785 97.5176 25.2832 97.4355 25.1191C97.3535 24.9551 97.2285 24.8281 97.0605 24.7383C96.8965 24.6484 96.6895 24.6035 96.4395 24.6035C96.209 24.6035 96.0098 24.6426 95.8418 24.7207C95.6738 24.7988 95.543 24.9043 95.4492 25.0371C95.3555 25.1699 95.3086 25.3203 95.3086 25.4883H93.9023C93.9023 25.2383 93.9629 24.9961 94.084 24.7617C94.2051 24.5273 94.3809 24.3184 94.6113 24.1348C94.8418 23.9512 95.1172 23.8066 95.4375 23.7012C95.7578 23.5957 96.1172 23.543 96.5156 23.543C96.9922 23.543 97.4141 23.623 97.7812 23.7832C98.1523 23.9434 98.4434 24.1855 98.6543 24.5098C98.8691 24.8301 98.9766 25.2324 98.9766 25.7168V28.5352C98.9766 28.8242 98.9961 29.084 99.0352 29.3145C99.0781 29.541 99.1387 29.7383 99.2168 29.9062V30H97.7695C97.7031 29.8477 97.6504 29.6543 97.6113 29.4199C97.5762 29.1816 97.5586 28.9512 97.5586 28.7285ZM97.7637 26.1445L97.7754 27.0176H96.7617C96.5 27.0176 96.2695 27.043 96.0703 27.0938C95.8711 27.1406 95.7051 27.2109 95.5723 27.3047C95.4395 27.3984 95.3398 27.5117 95.2734 27.6445C95.207 27.7773 95.1738 27.9277 95.1738 28.0957C95.1738 28.2637 95.2129 28.418 95.291 28.5586C95.3691 28.6953 95.4824 28.8027 95.6309 28.8809C95.7832 28.959 95.9668 28.998 96.1816 28.998C96.4707 28.998 96.7227 28.9395 96.9375 28.8223C97.1562 28.7012 97.3281 28.5547 97.4531 28.3828C97.5781 28.207 97.6445 28.041 97.6523 27.8848L98.1094 28.5117C98.0625 28.6719 97.9824 28.8438 97.8691 29.0273C97.7559 29.2109 97.6074 29.3867 97.4238 29.5547C97.2441 29.7188 97.0273 29.8535 96.7734 29.959C96.5234 30.0645 96.2344 30.1172 95.9062 30.1172C95.4922 30.1172 95.123 30.0352 94.7988 29.8711C94.4746 29.7031 94.2207 29.4785 94.0371 29.1973C93.8535 28.9121 93.7617 28.5898 93.7617 28.2305C93.7617 27.8945 93.8242 27.5977 93.9492 27.3398C94.0781 27.0781 94.2656 26.8594 94.5117 26.6836C94.7617 26.5078 95.0664 26.375 95.4258 26.2852C95.7852 26.1914 96.1953 26.1445 96.6562 26.1445H97.7637ZM103.359 23.6602V24.6914H99.7852V23.6602H103.359ZM100.816 22.1074H102.229V28.248C102.229 28.4434 102.256 28.5938 102.311 28.6992C102.369 28.8008 102.449 28.8691 102.551 28.9043C102.652 28.9395 102.771 28.957 102.908 28.957C103.006 28.957 103.1 28.9512 103.189 28.9395C103.279 28.9277 103.352 28.916 103.406 28.9043L103.412 29.9824C103.295 30.0176 103.158 30.0488 103.002 30.0762C102.85 30.1035 102.674 30.1172 102.475 30.1172C102.15 30.1172 101.863 30.0605 101.613 29.9473C101.363 29.8301 101.168 29.6406 101.027 29.3789C100.887 29.1172 100.816 28.7695 100.816 28.3359V22.1074ZM107.244 30.1172C106.775 30.1172 106.352 30.041 105.973 29.8887C105.598 29.7324 105.277 29.5156 105.012 29.2383C104.75 28.9609 104.549 28.6348 104.408 28.2598C104.268 27.8848 104.197 27.4805 104.197 27.0469V26.8125C104.197 26.3164 104.27 25.8672 104.414 25.4648C104.559 25.0625 104.76 24.7188 105.018 24.4336C105.275 24.1445 105.58 23.9238 105.932 23.7715C106.283 23.6191 106.664 23.543 107.074 23.543C107.527 23.543 107.924 23.6191 108.264 23.7715C108.604 23.9238 108.885 24.1387 109.107 24.416C109.334 24.6895 109.502 25.0156 109.611 25.3945C109.725 25.7734 109.781 26.1914 109.781 26.6484V27.252H104.883V26.2383H108.387V26.127C108.379 25.873 108.328 25.6348 108.234 25.4121C108.145 25.1895 108.006 25.0098 107.818 24.873C107.631 24.7363 107.381 24.668 107.068 24.668C106.834 24.668 106.625 24.7188 106.441 24.8203C106.262 24.918 106.111 25.0605 105.99 25.248C105.869 25.4355 105.775 25.6621 105.709 25.9277C105.646 26.1895 105.615 26.4844 105.615 26.8125V27.0469C105.615 27.3242 105.652 27.582 105.727 27.8203C105.805 28.0547 105.918 28.2598 106.066 28.4355C106.215 28.6113 106.395 28.75 106.605 28.8516C106.816 28.9492 107.057 28.998 107.326 28.998C107.666 28.998 107.969 28.9297 108.234 28.793C108.5 28.6562 108.73 28.4629 108.926 28.2129L109.67 28.9336C109.533 29.1328 109.355 29.3242 109.137 29.5078C108.918 29.6875 108.65 29.834 108.334 29.9473C108.021 30.0605 107.658 30.1172 107.244 30.1172ZM112.301 24.8672V30H110.889V23.6602H112.236L112.301 24.8672ZM114.24 23.6191L114.229 24.9316C114.143 24.916 114.049 24.9043 113.947 24.8965C113.85 24.8887 113.752 24.8848 113.654 24.8848C113.412 24.8848 113.199 24.9199 113.016 24.9902C112.832 25.0566 112.678 25.1543 112.553 25.2832C112.432 25.4082 112.338 25.5605 112.271 25.7402C112.205 25.9199 112.166 26.1211 112.154 26.3438L111.832 26.3672C111.832 25.9688 111.871 25.5996 111.949 25.2598C112.027 24.9199 112.145 24.6211 112.301 24.3633C112.461 24.1055 112.66 23.9043 112.898 23.7598C113.141 23.6152 113.42 23.543 113.736 23.543C113.822 23.543 113.914 23.5508 114.012 23.5664C114.113 23.582 114.189 23.5996 114.24 23.6191ZM116.637 23.6602V30H115.219V23.6602H116.637ZM115.125 21.9961C115.125 21.7812 115.195 21.6035 115.336 21.4629C115.48 21.3184 115.68 21.2461 115.934 21.2461C116.184 21.2461 116.381 21.3184 116.525 21.4629C116.67 21.6035 116.742 21.7812 116.742 21.9961C116.742 22.207 116.67 22.3828 116.525 22.5234C116.381 22.6641 116.184 22.7344 115.934 22.7344C115.68 22.7344 115.48 22.6641 115.336 22.5234C115.195 22.3828 115.125 22.207 115.125 21.9961ZM121.758 28.7285V25.7051C121.758 25.4785 121.717 25.2832 121.635 25.1191C121.553 24.9551 121.428 24.8281 121.26 24.7383C121.096 24.6484 120.889 24.6035 120.639 24.6035C120.408 24.6035 120.209 24.6426 120.041 24.7207C119.873 24.7988 119.742 24.9043 119.648 25.0371C119.555 25.1699 119.508 25.3203 119.508 25.4883H118.102C118.102 25.2383 118.162 24.9961 118.283 24.7617C118.404 24.5273 118.58 24.3184 118.811 24.1348C119.041 23.9512 119.316 23.8066 119.637 23.7012C119.957 23.5957 120.316 23.543 120.715 23.543C121.191 23.543 121.613 23.623 121.98 23.7832C122.352 23.9434 122.643 24.1855 122.854 24.5098C123.068 24.8301 123.176 25.2324 123.176 25.7168V28.5352C123.176 28.8242 123.195 29.084 123.234 29.3145C123.277 29.541 123.338 29.7383 123.416 29.9062V30H121.969C121.902 29.8477 121.85 29.6543 121.811 29.4199C121.775 29.1816 121.758 28.9512 121.758 28.7285ZM121.963 26.1445L121.975 27.0176H120.961C120.699 27.0176 120.469 27.043 120.27 27.0938C120.07 27.1406 119.904 27.2109 119.771 27.3047C119.639 27.3984 119.539 27.5117 119.473 27.6445C119.406 27.7773 119.373 27.9277 119.373 28.0957C119.373 28.2637 119.412 28.418 119.49 28.5586C119.568 28.6953 119.682 28.8027 119.83 28.8809C119.982 28.959 120.166 28.998 120.381 28.998C120.67 28.998 120.922 28.9395 121.137 28.8223C121.355 28.7012 121.527 28.5547 121.652 28.3828C121.777 28.207 121.844 28.041 121.852 27.8848L122.309 28.5117C122.262 28.6719 122.182 28.8438 122.068 29.0273C121.955 29.2109 121.807 29.3867 121.623 29.5547C121.443 29.7188 121.227 29.8535 120.973 29.959C120.723 30.0645 120.434 30.1172 120.105 30.1172C119.691 30.1172 119.322 30.0352 118.998 29.8711C118.674 29.7031 118.42 29.4785 118.236 29.1973C118.053 28.9121 117.961 28.5898 117.961 28.2305C117.961 27.8945 118.023 27.5977 118.148 27.3398C118.277 27.0781 118.465 26.8594 118.711 26.6836C118.961 26.5078 119.266 26.375 119.625 26.2852C119.984 26.1914 120.395 26.1445 120.855 26.1445H121.963ZM126.164 21V30H124.746V21H126.164Z" fill="white"/>
</svg>
