<svg width="20" height="20" viewBox="0 0 20 20" fill="none" xmlns="http://www.w3.org/2000/svg">
<path d="M18.5 11.125H16V14.5L15 13.7512L14 14.5V11.125H11.5C11.225 11.125 11 11.3781 11 11.6875V18.4375C11 18.7469 11.225 19 11.5 19H18.5C18.775 19 19 18.7469 19 18.4375V11.6875C19 11.3781 18.775 11.125 18.5 11.125ZM6.5 8.875H13.5C13.775 8.875 14 8.62187 14 8.3125V1.5625C14 1.25312 13.775 1 13.5 1H11V4.375L10 3.62617L9 4.375V1H6.5C6.225 1 6 1.25312 6 1.5625V8.3125C6 8.62187 6.225 8.875 6.5 8.875ZM8.5 11.125H6V14.5L5 13.7512L4 14.5V11.125H1.5C1.225 11.125 1 11.3781 1 11.6875V18.4375C1 18.7469 1.225 19 1.5 19H8.5C8.775 19 9 18.7469 9 18.4375V11.6875C9 11.3781 8.775 11.125 8.5 11.125Z" fill="#2DA060"/>
</svg>
