<svg width="14" height="18" viewBox="0 0 14 18" fill="none" xmlns="http://www.w3.org/2000/svg">
<path fill-rule="evenodd" clip-rule="evenodd" d="M6.99609 0.25C3.54672 0.25 0.746094 3.05062 0.746094 6.5C0.746094 7.56687 1.22484 9.02625 1.93359 10.5725C2.93734 12.765 4.38922 15.155 5.37859 16.8056C5.70984 17.3888 6.32922 17.75 7.00047 17.75C7.33055 17.75 7.65471 17.6624 7.93979 17.496C8.22487 17.3296 8.46064 17.0905 8.62297 16.8031C9.61234 15.155 11.0605 12.765 12.0623 10.5719C12.7692 9.02562 13.2461 7.56687 13.2461 6.5C13.2461 3.05062 10.4461 0.25 6.99609 0.25ZM6.99609 1.5C9.75609 1.5 11.9961 3.74062 11.9961 6.5C11.9961 7.43313 11.5442 8.69938 10.9255 10.0525C9.94172 12.205 8.51672 14.5506 7.54609 16.1687L7.53672 16.1856C7.48328 16.2809 7.40545 16.3602 7.3112 16.4155C7.21696 16.4707 7.10971 16.4999 7.00047 16.5C6.8912 16.5 6.7839 16.4709 6.68963 16.4157C6.59537 16.3604 6.51755 16.281 6.46422 16.1856C6.46109 16.18 6.45797 16.1744 6.45484 16.1694C5.48422 14.5506 4.05609 12.205 3.06984 10.0519C2.44984 8.69938 1.99609 7.43313 1.99609 6.5C1.99609 3.74062 4.23672 1.5 6.99609 1.5ZM7.00047 4C5.62047 4 4.50047 5.12 4.50047 6.5C4.50047 7.88 5.62047 9 7.00047 9C8.38047 9 9.50047 7.88 9.50047 6.5C9.50047 5.12 8.38047 4 7.00047 4ZM7.00047 5.25C7.69047 5.25 8.25047 5.81 8.25047 6.5C8.25047 7.19 7.69047 7.75 7.00047 7.75C6.31047 7.75 5.75047 7.19 5.75047 6.5C5.75047 5.81 6.31047 5.25 7.00047 5.25Z" fill="#343434"/>
</svg>
