<svg width="15" height="20" viewBox="0 0 15 20" fill="none" xmlns="http://www.w3.org/2000/svg">
<path d="M2.50777 0H11.6744C12.3369 0.00197841 12.9716 0.266006 13.44 0.734419C13.9084 1.20283 14.1725 1.83757 14.1744 2.5V7.5H6.67444C6.0114 7.5 5.37551 7.76339 4.90667 8.23223C4.43783 8.70107 4.17444 9.33696 4.17444 10C4.17444 10.663 4.43783 11.2989 4.90667 11.7678C5.37551 12.2366 6.0114 12.5 6.67444 12.5H14.1744V17.5C14.1725 18.1624 13.9084 18.7972 13.44 19.2656C12.9716 19.734 12.3369 19.998 11.6744 20H2.50777C1.84534 19.998 1.2106 19.734 0.742189 19.2656C0.273777 18.7972 0.00974941 18.1624 0.00777149 17.5V2.5C0.00974941 1.83757 0.273777 1.20283 0.742189 0.734419C1.2106 0.266006 1.84534 0.00197841 2.50777 0Z" fill="#2DA060"/>
</svg>
