<svg width="20" height="20" viewBox="0 0 20 20" fill="none" xmlns="http://www.w3.org/2000/svg">
<path d="M3.40509 12.6022H1.37875C1.17044 12.6022 1 12.7726 1 12.9809V15.8784C1 16.0867 1.17044 16.2572 1.37875 16.2572H3.40509C3.6134 16.2572 3.78384 16.0867 3.78384 15.8784V12.962C3.76491 12.7537 3.6134 12.6022 3.40509 12.6022Z" fill="#2DA060"/>
<path d="M7.66609 10.7463H5.62082C5.4125 10.7463 5.24207 10.9168 5.24207 11.1251V15.8785C5.24207 16.0868 5.4125 16.2572 5.62082 16.2572H7.64715C7.85547 16.2572 8.02591 16.0868 8.02591 15.8785V11.1251C8.02591 10.9168 7.87441 10.7463 7.66609 10.7463Z" fill="#2DA060"/>
<path d="M11.9271 8.89038H9.88181C9.67349 8.89038 9.50305 9.06082 9.50305 9.26913V15.8784C9.50305 16.0867 9.67349 16.2571 9.88181 16.2571H11.9081C12.1165 16.2571 12.2869 16.0867 12.2869 15.8784V9.26913C12.2869 9.06082 12.1165 8.89038 11.9271 8.89038Z" fill="#2DA060"/>
<path d="M15.4495 3.73933C15.601 3.4742 15.4116 3.15226 15.1275 3.13332L12.1922 3.00076C11.8702 2.98182 11.6809 3.3227 11.8134 3.58782L12.2111 4.3264L2.32563 9.78045C1.98475 9.96983 1.87112 10.3865 2.04156 10.7273C2.212 11.0682 2.64757 11.1818 2.98845 11.0114L12.8739 5.55735L13.2716 6.29592C13.4231 6.56104 13.8208 6.57998 13.9723 6.29592L15.4495 3.73933Z" fill="#2DA060"/>
<path d="M18.4038 11.3333C17.9682 10.8599 17.3433 10.5758 16.6994 10.5758H16.0176C15.7904 10.5758 15.5821 10.4812 15.4306 10.3107C15.2791 10.1403 15.2033 9.93196 15.2412 9.70471C15.2791 9.30702 15.6389 9.00401 16.0744 9.00401H16.8698C17.116 9.00401 17.3054 9.17445 17.3622 9.4017C17.4001 9.53427 17.5137 9.62896 17.6463 9.62896H18.5553C18.65 9.62896 18.7257 9.59108 18.7825 9.53427C18.8393 9.47745 18.8583 9.38277 18.8583 9.30701C18.7636 8.36013 18.025 7.62156 17.0971 7.50793V6.71255C17.0971 6.54211 16.9645 6.40955 16.7941 6.40955H15.8851C15.7146 6.40955 15.5821 6.54211 15.5821 6.71255V7.54581C14.4079 7.75412 13.5936 8.83357 13.7072 10.0266C13.8398 11.1818 14.8814 12.0909 16.1123 12.0909H16.6994C16.9266 12.0909 17.135 12.1855 17.2865 12.356C17.438 12.5264 17.5137 12.7347 17.4758 12.962C17.438 13.3597 17.0781 13.6627 16.6426 13.6627H15.8472C15.601 13.6627 15.3927 13.4922 15.3548 13.265C15.3359 13.1324 15.2033 13.0377 15.0707 13.0377H14.1617C14.067 13.0377 13.9913 13.0756 13.9345 13.1324C13.8777 13.1892 13.8587 13.2839 13.8587 13.3597C13.9534 14.3066 14.692 15.0451 15.6199 15.1588V15.9542C15.6199 16.1246 15.7525 16.2572 15.9229 16.2572H16.813C16.9834 16.2572 17.116 16.1246 17.116 15.9542V15.1209C18.1197 14.9126 18.8962 14.0983 18.9908 13.1135C19.0477 12.4507 18.8393 11.8257 18.4038 11.3333Z" fill="#2DA060"/>
</svg>
