<svg width="18" height="18" viewBox="0 0 18 18" fill="none" xmlns="http://www.w3.org/2000/svg">
<path d="M15.1917 9.81663C15.225 9.54996 15.25 9.28329 15.25 8.99996C15.25 8.71663 15.225 8.44996 15.1917 8.18329L16.95 6.80829C17.1083 6.68329 17.15 6.45829 17.05 6.27496L15.3833 3.39163C15.2833 3.20829 15.0583 3.14163 14.875 3.20829L12.8 4.04163C12.3667 3.70829 11.9 3.43329 11.3917 3.22496L11.075 1.01663C11.05 0.816626 10.875 0.666626 10.6667 0.666626H7.33332C7.12499 0.666626 6.94999 0.816626 6.92499 1.01663L6.60832 3.22496C6.09999 3.43329 5.63332 3.71663 5.19999 4.04163L3.12499 3.20829C2.93332 3.13329 2.71666 3.20829 2.61666 3.39163L0.949988 6.27496C0.841655 6.45829 0.891655 6.68329 1.04999 6.80829L2.80832 8.18329C2.77499 8.44996 2.74999 8.72496 2.74999 8.99996C2.74999 9.27496 2.77499 9.54996 2.80832 9.81663L1.04999 11.1916C0.891655 11.3166 0.849988 11.5416 0.949988 11.725L2.61666 14.6083C2.71666 14.7916 2.94165 14.8583 3.12499 14.7916L5.19999 13.9583C5.63332 14.2916 6.09999 14.5666 6.60832 14.775L6.92499 16.9833C6.94999 17.1833 7.12499 17.3333 7.33332 17.3333H10.6667C10.875 17.3333 11.05 17.1833 11.075 16.9833L11.3917 14.775C11.9 14.5666 12.3667 14.2833 12.8 13.9583L14.875 14.7916C15.0667 14.8666 15.2833 14.7916 15.3833 14.6083L17.05 11.725C17.15 11.5416 17.1083 11.3166 16.95 11.1916L15.1917 9.81663ZM8.99999 11.9166C7.39166 11.9166 6.08332 10.6083 6.08332 8.99996C6.08332 7.39163 7.39166 6.08329 8.99999 6.08329C10.6083 6.08329 11.9167 7.39163 11.9167 8.99996C11.9167 10.6083 10.6083 11.9166 8.99999 11.9166Z" fill="#2DA060"/>
</svg>
