<svg width="20" height="20" viewBox="0 0 20 20" fill="none" xmlns="http://www.w3.org/2000/svg">
<path fill-rule="evenodd" clip-rule="evenodd" d="M10.8333 4C10.8333 3.44772 10.3856 3 9.83334 3C9.28106 3 8.83334 3.44772 8.83334 4V8.83337H4C3.44772 8.83337 3 9.28109 3 9.83337C3 10.3857 3.44772 10.8334 4 10.8334H8.83334V15.6667C8.83334 16.219 9.28106 16.6667 9.83334 16.6667C10.3856 16.6667 10.8333 16.219 10.8333 15.6667V10.8334H15.6667C16.219 10.8334 16.6667 10.3857 16.6667 9.83337C16.6667 9.28109 16.219 8.83337 15.6667 8.83337H10.8333V4Z" fill="#2DA060"/>
</svg>
