<svg width="18" height="16" viewBox="0 0 18 16" fill="none" xmlns="http://www.w3.org/2000/svg">
<path fill-rule="evenodd" clip-rule="evenodd" d="M16.7143 5.14286H1.28571V13.5C1.28571 14.0117 1.48886 14.5022 1.85079 14.8635C2.21207 15.2254 2.70257 15.4286 3.21429 15.4286C5.904 15.4286 12.096 15.4286 14.7857 15.4286C15.2974 15.4286 15.7879 15.2254 16.1492 14.8635C16.5111 14.5022 16.7143 14.0117 16.7143 13.5V5.14286ZM7.07143 7.71429H10.9286C11.2834 7.71429 11.5714 7.42629 11.5714 7.07143C11.5714 6.71657 11.2834 6.42857 10.9286 6.42857H7.07143C6.71657 6.42857 6.42857 6.71657 6.42857 7.07143C6.42857 7.42629 6.71657 7.71429 7.07143 7.71429ZM1.28571 3.85714H16.7143C17.4246 3.85714 18 3.28179 18 2.57143V1.28571C18 0.575357 17.4246 0 16.7143 0C14.0567 0 3.94329 0 1.28571 0C0.575357 0 0 0.575357 0 1.28571V2.57143C0 3.28179 0.575357 3.85714 1.28571 3.85714Z" fill="#6B6B6B"/>
</svg>
