<svg width="12" height="10" viewBox="0 0 12 10" fill="none" xmlns="http://www.w3.org/2000/svg">
<path d="M5.33333 2.33337C5.33333 3.43794 4.4379 4.33337 3.33333 4.33337C2.22876 4.33337 1.33333 3.43794 1.33333 2.33337C1.33333 1.2288 2.22876 0.333374 3.33333 0.333374C4.4379 0.333374 5.33333 1.2288 5.33333 2.33337Z" fill="#2DA060"/>
<path d="M10.6667 2.33337C10.6667 3.43794 9.77123 4.33337 8.66666 4.33337C7.56209 4.33337 6.66666 3.43794 6.66666 2.33337C6.66666 1.2288 7.56209 0.333374 8.66666 0.333374C9.77123 0.333374 10.6667 1.2288 10.6667 2.33337Z" fill="#2DA060"/>
<path d="M7.95275 9.6667C7.98389 9.44896 8.00001 9.22638 8.00001 9.00003C8.00001 7.90991 7.62622 6.90709 6.99983 6.11275C7.49016 5.82907 8.05945 5.6667 8.66667 5.6667C10.5076 5.6667 12 7.15908 12 9.00003V9.6667H7.95275Z" fill="#2DA060"/>
<path d="M3.33333 5.6667C5.17428 5.6667 6.66666 7.15908 6.66666 9.00003V9.6667H0V9.00003C0 7.15908 1.49238 5.6667 3.33333 5.6667Z" fill="#2DA060"/>
</svg>
